{"title":"Madeas Big Happy Family 2011 XViD CAM DTRG - SAFCuk009","uid":6345311,"size":1283870200,"categoryP":"video","categoryS":"movies","magnet":"?xt=urn:btih:4338a7a4245b61208e513a1aa39d406cc5e2181f&amp;dn=Madeas+Big+Happy+Family+2011+XViD+CAM+DTRG+-+SAFCuk009&amp;tr=udp%3A%2F%2Ftracker.openbittorrent.com%3A80&amp;tr=udp%3A%2F%2Fopen.demonii.com%3A1337&amp;tr=udp%3A%2F%2Ftracker.coppersurfer.tk%3A6969&amp;tr=udp%3A%2F%2Fexodus.desync.com%3A6969","seeders":1,"leechers":0,"uploader":"SAFCukO09","files":4,"time":1303815832,"description":"Format                           : AVI\nFormat/Info                      : Audio Video Interleave\nFile size                        : 1.19 GiB\nDuration                         : 1h 45mn\nOverall bit rate                 : 1 616 Kbps\nWriting library                  : VirtualDub build 32839/release\n\nVideo\nID                               : 0\nFormat                           : MPEG-4 Visual\nFormat profile                   : Advanced Simple@L5\nFormat settings, BVOP            : Yes\nFormat settings, QPel            : No\nFormat settings, GMC             : No warppoints\nFormat settings, Matrix          : Custom\nCodec ID                         : XVID\nCodec ID/Hint                    : XviD\nDuration                         : 1h 45mn\nBit rate                         : 1 477 Kbps\nWidth                            : 622 pixels\nHeight                           : 358 pixels\nDisplay aspect ratio             : 16:9\nFrame rate                       : 29.970 fps\nColor space                      : YUV\nChroma subsampling               : 4:2:0\nBit depth                        : 8 bits\nScan type                        : Progressive\nBits/(Pixel*Frame)               : 0.221\nStream size                      : 1.08 GiB (91%)\nWriting library                  : XviD 1.2.1 (UTC 2008-12-04)\n\nAudio\nID                               : 1\nFormat                           : MPEG Audio\nFormat version                   : Version 1\nFormat profile                   : Layer 3\nCodec ID                         : 55\nCodec ID/Hint                    : MP3\nDuration                         : 1h 45mn\nBit rate mode                    : Constant\nBit rate                         : 128 Kbps\nChannel(s)                       : 2 channels\nSampling rate                    : 44.1 KHz\nStream size                      : 96.3 MiB (8%)\nAlignment                        : Split accross interleaves\nInterleave, duration             : 33 ms (1.00 video frame)\nInterleave, preload duration     : 500 ms\n\n\n\n &lt;a href=&quot;\nhttp://www.imdb.com/title/tt1787759/&quot; rel=&quot;nofollow&quot; target=&quot;_NEW&quot;&gt;\nhttp://www.imdb.com/title/tt1787759/&lt;/a&gt;\n\n\n\n\n\nUsers: 2.8/10 (263 votes) 1 review | Critics: 1 reviews Metascore: 45/100 (based on 7 reviews from Metacritic.com)\n\nMadea jumps into action when her niece, Shirley, receives distressing news about her health. All Shirley wants is to gather her three adult children around her and share the news as a family... See full summary Ã‚Â»\nDirector:\nTyler Perry\nWriter:\nTyler Perry (screenplay)\nStars:\nTyler Perry, Loretta Devine and Bow Wow \n\n\n\n\n\n\n\n &lt;a href=&quot;\nhttp://img585.imageshack.us/img585/6171/vlcsnap2011042606h30m35.png&quot; rel=&quot;nofollow&quot; target=&quot;_NEW&quot;&gt;\nhttp://img585.imageshack.us/img585/6171/vlcsnap2011042606h30m35.png&lt;/a&gt;\n &lt;a href=&quot;\nhttp://img40.imageshack.us/img40/87/vlcsnap2011042606h32m32.png&quot; rel=&quot;nofollow&quot; target=&quot;_NEW&quot;&gt;\nhttp://img40.imageshack.us/img40/87/vlcsnap2011042606h32m32.png&lt;/a&gt;\n &lt;a href=&quot;\nhttp://img14.imageshack.us/img14/3174/vlcsnap2011042606h28m34.png&quot; rel=&quot;nofollow&quot; target=&quot;_NEW&quot;&gt;\nhttp://img14.imageshack.us/img14/3174/vlcsnap2011042606h28m34.png&lt;/a&gt;\n\n\n\nSource Used LKRG  ...................... Thanks \n\nDeinterlaced ,rgb colours ,levels filter and slight denoise..............\n\nEnjoy !\n\n\n\nGreetz to Imagine ,Flawl3ss,DiLLoN,BDK,NOiR,TOXiCiNK,THC,Ez,Rx,Boobyblue,LKRG \n\n\n\n","torrent":{"xt":"urn:btih:4338a7a4245b61208e513a1aa39d406cc5e2181f","amp;dn":"Madeas+Big+Happy+Family+2011+XViD+CAM+DTRG+-+SAFCuk009","amp;tr":["udp%3A%2F%2Ftracker.openbittorrent.com%3A80","udp%3A%2F%2Fopen.demonii.com%3A1337","udp%3A%2F%2Ftracker.coppersurfer.tk%3A6969","udp%3A%2F%2Fexodus.desync.com%3A6969"],"infoHash":"4338a7a4245b61208e513a1aa39d406cc5e2181f","infoHashBuffer":{"type":"Buffer","data":[67,56,167,164,36,91,97,32,142,81,58,26,163,157,64,108,197,226,24,31]},"announce":[],"urlList":[]}}